<!-- Generated by IcoMoon.io -->
<svg version="1.1" xmlns="http://www.w3.org/2000/svg" width="32" height="32" viewBox="0 0 32 32">
<title>empty-square</title>
<path fill="#f5f5f5" d="M0 1h32v30h-32z"></path>
<path fill="#fff" d="M-1176-1325h3200v2048h-3200z"></path>
<path fill="#c4c4c4" d="M-1176-1165h3200v1200h-3200z"></path>
<path fill="#000" d="M-1176-1165h3200v1200h-3200z"></path>
<path fill="#2f303a" opacity="0.4" d="M-1176-1165h3200v1200h-3200z"></path>
<path fill="#000" opacity="0.2" d="M-1176-1325h3200v2048h-3200z"></path>
<path fill="#fff" d="M-104-875c0-4.418 3.582-8 8-8v0h1040c4.418 0 8 3.582 8 8v0 1146c0 4.418-3.582 8-8 8v0h-1040c-4.418 0-8-3.582-8-8v0-1146z"></path>
<path fill="#212121" d="M28.444 4.334v23.332h-24.888v-23.332h24.888zM28.444 1h-24.888c-1.956 0-3.556 1.5-3.556 3.334v23.332c0 1.834 1.6 3.334 3.556 3.334h24.888c1.956 0 3.556-1.5 3.556-3.334v-23.332c0-1.834-1.6-3.334-3.556-3.334z"></path>
</svg>
